<?xml version="1.0" encoding="UTF-8" standalone="no"?>
<!DOCTYPE svg PUBLIC "-//W3C//DTD SVG 1.1//EN"
 "http://www.w3.org/Graphics/SVG/1.1/DTD/svg11.dtd">
<!-- Generated by graphviz version 2.44.1 (20200629.0846)
 -->
<!-- Title: dependencies Pages: 1 -->
<svg width="1088pt" height="284pt"
 viewBox="0.00 0.00 1088.00 284.00" xmlns="http://www.w3.org/2000/svg" xmlns:xlink="http://www.w3.org/1999/xlink">
<g id="graph0" class="graph" transform="scale(1 1) rotate(0) translate(4 280)">
<title>dependencies</title>
<polygon fill="white" stroke="transparent" points="-4,4 -4,-280 1084,-280 1084,4 -4,4"/>
<text text-anchor="start" x="519.01" y="-42.4" font-family="sans-serif" font-weight="bold" font-size="14.00">Legend</text>
<polygon fill="#ffffb3" stroke="transparent" points="306,-10 306,-30 326,-30 326,-10 306,-10"/>
<text text-anchor="start" x="329.63" y="-15.4" font-family="sans-serif" font-size="14.00"> &#160;Declarations</text>
<polygon fill="#8dd3c7" stroke="transparent" points="419,-10 419,-30 439,-30 439,-10 419,-10"/>
<text text-anchor="start" x="442.73" y="-15.4" font-family="sans-serif" font-size="14.00"> &#160;Module</text>
<polygon fill="#80b1d3" stroke="transparent" points="505,-10 505,-30 525,-30 525,-10 505,-10"/>
<text text-anchor="start" x="528.78" y="-15.4" font-family="sans-serif" font-size="14.00"> &#160;Bootstrap</text>
<polygon fill="#fdb462" stroke="transparent" points="602,-10 602,-30 622,-30 622,-10 602,-10"/>
<text text-anchor="start" x="625.67" y="-15.4" font-family="sans-serif" font-size="14.00"> &#160;Providers</text>
<polygon fill="#fb8072" stroke="transparent" points="698,-10 698,-30 718,-30 718,-10 698,-10"/>
<text text-anchor="start" x="721.73" y="-15.4" font-family="sans-serif" font-size="14.00"> &#160;Exports</text>
<g id="clust1" class="cluster">
<title>cluster_SharedModule</title>
<polygon fill="none" stroke="black" stroke-dasharray="1,5" points="8,-70 8,-268 1072,-268 1072,-70 8,-70"/>
</g>
<g id="clust2" class="cluster">
<title>cluster_SharedModule_declarations</title>
<polygon fill="none" stroke="black" points="187,-78 187,-130 855,-130 855,-78 187,-78"/>
</g>
<g id="clust9" class="cluster">
<title>cluster_SharedModule_exports</title>
<polygon fill="none" stroke="black" points="16,-208 16,-260 1064,-260 1064,-208 16,-208"/>
</g>
<!-- BtnComponent -->
<g id="node1" class="node">
<title>BtnComponent</title>
<polygon fill="#ffffb3" stroke="black" points="846.56,-122 745.44,-122 745.44,-86 846.56,-86 846.56,-122"/>
<text text-anchor="middle" x="796" y="-99.8" font-family="Times,serif" font-size="14.00">BtnComponent</text>
</g>
<!-- SharedModule -->
<g id="node6" class="node">
<title>SharedModule</title>
<polygon fill="#8dd3c7" stroke="black" points="585.42,-187 582.42,-191 561.42,-191 558.42,-187 486.58,-187 486.58,-151 585.42,-151 585.42,-187"/>
<text text-anchor="middle" x="536" y="-164.8" font-family="Times,serif" font-size="14.00">SharedModule</text>
</g>
<!-- BtnComponent&#45;&gt;SharedModule -->
<g id="edge1" class="edge">
<title>BtnComponent&#45;&gt;SharedModule</title>
<path fill="none" stroke="black" d="M783.5,-122.02C783.5,-139.37 783.5,-163 783.5,-163 783.5,-163 595.49,-163 595.49,-163"/>
<polygon fill="black" stroke="black" points="595.49,-159.5 585.49,-163 595.49,-166.5 595.49,-159.5"/>
</g>
<!-- StateDirective -->
<g id="node2" class="node">
<title>StateDirective</title>
<polygon fill="#ffffb3" stroke="black" points="727.08,-122 630.92,-122 630.92,-86 727.08,-86 727.08,-122"/>
<text text-anchor="middle" x="679" y="-99.8" font-family="Times,serif" font-size="14.00">StateDirective</text>
</g>
<!-- StateDirective&#45;&gt;SharedModule -->
<g id="edge2" class="edge">
<title>StateDirective&#45;&gt;SharedModule</title>
<path fill="none" stroke="black" d="M667.46,-122.24C667.46,-137.57 667.46,-157 667.46,-157 667.46,-157 595.32,-157 595.32,-157"/>
<polygon fill="black" stroke="black" points="595.32,-153.5 585.32,-157 595.32,-160.5 595.32,-153.5"/>
</g>
<!-- TableauDarkComponent -->
<g id="node3" class="node">
<title>TableauDarkComponent</title>
<polygon fill="#ffffb3" stroke="black" points="613.4,-122 458.6,-122 458.6,-86 613.4,-86 613.4,-122"/>
<text text-anchor="middle" x="536" y="-99.8" font-family="Times,serif" font-size="14.00">TableauDarkComponent</text>
</g>
<!-- TableauDarkComponent&#45;&gt;SharedModule -->
<g id="edge3" class="edge">
<title>TableauDarkComponent&#45;&gt;SharedModule</title>
<path fill="none" stroke="black" d="M536,-122.11C536,-122.11 536,-140.99 536,-140.99"/>
<polygon fill="black" stroke="black" points="532.5,-140.99 536,-150.99 539.5,-140.99 532.5,-140.99"/>
</g>
<!-- TableauLightComponent -->
<g id="node4" class="node">
<title>TableauLightComponent</title>
<polygon fill="#ffffb3" stroke="black" points="440.25,-122 283.75,-122 283.75,-86 440.25,-86 440.25,-122"/>
<text text-anchor="middle" x="362" y="-99.8" font-family="Times,serif" font-size="14.00">TableauLightComponent</text>
</g>
<!-- TableauLightComponent&#45;&gt;SharedModule -->
<g id="edge4" class="edge">
<title>TableauLightComponent&#45;&gt;SharedModule</title>
<path fill="none" stroke="black" d="M404.12,-122.24C404.12,-137.57 404.12,-157 404.12,-157 404.12,-157 476.52,-157 476.52,-157"/>
<polygon fill="black" stroke="black" points="476.52,-160.5 486.52,-157 476.52,-153.5 476.52,-160.5"/>
</g>
<!-- TotalPipe -->
<g id="node5" class="node">
<title>TotalPipe</title>
<polygon fill="#ffffb3" stroke="black" points="265.44,-122 194.56,-122 194.56,-86 265.44,-86 265.44,-122"/>
<text text-anchor="middle" x="230" y="-99.8" font-family="Times,serif" font-size="14.00">TotalPipe</text>
</g>
<!-- TotalPipe&#45;&gt;SharedModule -->
<g id="edge5" class="edge">
<title>TotalPipe&#45;&gt;SharedModule</title>
<path fill="none" stroke="black" d="M246.77,-122.02C246.77,-139.37 246.77,-163 246.77,-163 246.77,-163 476.61,-163 476.61,-163"/>
<polygon fill="black" stroke="black" points="476.61,-166.5 486.61,-163 476.61,-159.5 476.61,-166.5"/>
</g>
<!-- BtnComponent  -->
<g id="node7" class="node">
<title>BtnComponent </title>
<polygon fill="#fb8072" stroke="black" points="1055.56,-252 950.44,-252 950.44,-216 1055.56,-216 1055.56,-252"/>
<text text-anchor="middle" x="1003" y="-229.8" font-family="Times,serif" font-size="14.00">BtnComponent </text>
</g>
<!-- SharedModule&#45;&gt;BtnComponent  -->
<g id="edge6" class="edge">
<title>SharedModule&#45;&gt;BtnComponent </title>
<path fill="none" stroke="black" stroke-dasharray="5,2" d="M585.54,-169C705.72,-169 1003,-169 1003,-169 1003,-169 1003,-205.89 1003,-205.89"/>
<polygon fill="black" stroke="black" points="999.5,-205.89 1003,-215.89 1006.5,-205.89 999.5,-205.89"/>
</g>
<!-- IconsModule  -->
<g id="node8" class="node">
<title>IconsModule </title>
<polygon fill="#fb8072" stroke="black" points="932.87,-252 839.13,-252 839.13,-216 932.87,-216 932.87,-252"/>
<text text-anchor="middle" x="886" y="-229.8" font-family="Times,serif" font-size="14.00">IconsModule </text>
</g>
<!-- SharedModule&#45;&gt;IconsModule  -->
<g id="edge7" class="edge">
<title>SharedModule&#45;&gt;IconsModule </title>
<path fill="none" stroke="black" stroke-dasharray="5,2" d="M585.33,-175C672.13,-175 843.05,-175 843.05,-175 843.05,-175 843.05,-205.98 843.05,-205.98"/>
<polygon fill="black" stroke="black" points="839.55,-205.98 843.05,-215.98 846.55,-205.98 839.55,-205.98"/>
</g>
<!-- StateDirective  -->
<g id="node9" class="node">
<title>StateDirective </title>
<polygon fill="#fb8072" stroke="black" points="821.58,-252 722.42,-252 722.42,-216 821.58,-216 821.58,-252"/>
<text text-anchor="middle" x="772" y="-229.8" font-family="Times,serif" font-size="14.00">StateDirective </text>
</g>
<!-- SharedModule&#45;&gt;StateDirective  -->
<g id="edge8" class="edge">
<title>SharedModule&#45;&gt;StateDirective </title>
<path fill="none" stroke="black" stroke-dasharray="5,2" d="M585.21,-181C644.47,-181 736.13,-181 736.13,-181 736.13,-181 736.13,-205.76 736.13,-205.76"/>
<polygon fill="black" stroke="black" points="732.63,-205.76 736.13,-215.76 739.63,-205.76 732.63,-205.76"/>
</g>
<!-- TableauDarkComponent  -->
<g id="node10" class="node">
<title>TableauDarkComponent </title>
<polygon fill="#fb8072" stroke="black" points="703.9,-252 546.1,-252 546.1,-216 703.9,-216 703.9,-252"/>
<text text-anchor="middle" x="625" y="-229.8" font-family="Times,serif" font-size="14.00">TableauDarkComponent </text>
</g>
<!-- SharedModule&#45;&gt;TableauDarkComponent  -->
<g id="edge9" class="edge">
<title>SharedModule&#45;&gt;TableauDarkComponent </title>
<path fill="none" stroke="black" stroke-dasharray="5,2" d="M565.63,-187.11C565.63,-187.11 565.63,-205.99 565.63,-205.99"/>
<polygon fill="black" stroke="black" points="562.13,-205.99 565.63,-215.99 569.13,-205.99 562.13,-205.99"/>
</g>
<!-- TableauLightComponent  -->
<g id="node11" class="node">
<title>TableauLightComponent </title>
<polygon fill="#fb8072" stroke="black" points="528.25,-252 367.75,-252 367.75,-216 528.25,-216 528.25,-252"/>
<text text-anchor="middle" x="448" y="-229.8" font-family="Times,serif" font-size="14.00">TableauLightComponent </text>
</g>
<!-- SharedModule&#45;&gt;TableauLightComponent  -->
<g id="edge10" class="edge">
<title>SharedModule&#45;&gt;TableauLightComponent </title>
<path fill="none" stroke="black" stroke-dasharray="5,2" d="M507.46,-187.11C507.46,-187.11 507.46,-205.99 507.46,-205.99"/>
<polygon fill="black" stroke="black" points="503.96,-205.99 507.46,-215.99 510.96,-205.99 503.96,-205.99"/>
</g>
<!-- TemplatesModule  -->
<g id="node12" class="node">
<title>TemplatesModule </title>
<polygon fill="#fb8072" stroke="black" points="349.86,-252 228.14,-252 228.14,-216 349.86,-216 349.86,-252"/>
<text text-anchor="middle" x="289" y="-229.8" font-family="Times,serif" font-size="14.00">TemplatesModule </text>
</g>
<!-- SharedModule&#45;&gt;TemplatesModule  -->
<g id="edge11" class="edge">
<title>SharedModule&#45;&gt;TemplatesModule </title>
<path fill="none" stroke="black" stroke-dasharray="5,2" d="M486.77,-181C422.1,-181 316.65,-181 316.65,-181 316.65,-181 316.65,-205.76 316.65,-205.76"/>
<polygon fill="black" stroke="black" points="313.15,-205.76 316.65,-215.76 320.15,-205.76 313.15,-205.76"/>
</g>
<!-- TextsModule  -->
<g id="node13" class="node">
<title>TextsModule </title>
<polygon fill="#fb8072" stroke="black" points="210.15,-252 115.85,-252 115.85,-216 210.15,-216 210.15,-252"/>
<text text-anchor="middle" x="163" y="-229.8" font-family="Times,serif" font-size="14.00">TextsModule </text>
</g>
<!-- SharedModule&#45;&gt;TextsModule  -->
<g id="edge12" class="edge">
<title>SharedModule&#45;&gt;TextsModule </title>
<path fill="none" stroke="black" stroke-dasharray="5,2" d="M486.78,-175C393.99,-175 202.43,-175 202.43,-175 202.43,-175 202.43,-205.98 202.43,-205.98"/>
<polygon fill="black" stroke="black" points="198.93,-205.98 202.43,-215.98 205.93,-205.98 198.93,-205.98"/>
</g>
<!-- TotalPipe  -->
<g id="node14" class="node">
<title>TotalPipe </title>
<polygon fill="#fb8072" stroke="black" points="97.94,-252 24.06,-252 24.06,-216 97.94,-216 97.94,-252"/>
<text text-anchor="middle" x="61" y="-229.8" font-family="Times,serif" font-size="14.00">TotalPipe </text>
</g>
<!-- SharedModule&#45;&gt;TotalPipe  -->
<g id="edge13" class="edge">
<title>SharedModule&#45;&gt;TotalPipe </title>
<path fill="none" stroke="black" stroke-dasharray="5,2" d="M486.51,-169C364.85,-169 61,-169 61,-169 61,-169 61,-205.89 61,-205.89"/>
<polygon fill="black" stroke="black" points="57.5,-205.89 61,-215.89 64.5,-205.89 57.5,-205.89"/>
</g>
</g>
</svg>
