<?xml version="1.0" encoding="UTF-8" standalone="no"?>
<!DOCTYPE svg PUBLIC "-//W3C//DTD SVG 1.1//EN"
 "http://www.w3.org/Graphics/SVG/1.1/DTD/svg11.dtd">
<!-- Generated by graphviz version 2.44.1 (20200629.0846)
 -->
<!-- Title: dependencies Pages: 1 -->
<svg width="504pt" height="284pt"
 viewBox="0.00 0.00 504.00 284.00" xmlns="http://www.w3.org/2000/svg" xmlns:xlink="http://www.w3.org/1999/xlink">
<g id="graph0" class="graph" transform="scale(1 1) rotate(0) translate(4 280)">
<title>dependencies</title>
<polygon fill="white" stroke="transparent" points="-4,4 -4,-280 500,-280 500,4 -4,4"/>
<text text-anchor="start" x="227.01" y="-42.4" font-family="sans-serif" font-weight="bold" font-size="14.00">Legend</text>
<polygon fill="#ffffb3" stroke="transparent" points="14,-10 14,-30 34,-30 34,-10 14,-10"/>
<text text-anchor="start" x="37.63" y="-15.4" font-family="sans-serif" font-size="14.00"> &#160;Declarations</text>
<polygon fill="#8dd3c7" stroke="transparent" points="127,-10 127,-30 147,-30 147,-10 127,-10"/>
<text text-anchor="start" x="150.73" y="-15.4" font-family="sans-serif" font-size="14.00"> &#160;Module</text>
<polygon fill="#80b1d3" stroke="transparent" points="213,-10 213,-30 233,-30 233,-10 213,-10"/>
<text text-anchor="start" x="236.78" y="-15.4" font-family="sans-serif" font-size="14.00"> &#160;Bootstrap</text>
<polygon fill="#fdb462" stroke="transparent" points="310,-10 310,-30 330,-30 330,-10 310,-10"/>
<text text-anchor="start" x="333.67" y="-15.4" font-family="sans-serif" font-size="14.00"> &#160;Providers</text>
<polygon fill="#fb8072" stroke="transparent" points="406,-10 406,-30 426,-30 426,-10 406,-10"/>
<text text-anchor="start" x="429.73" y="-15.4" font-family="sans-serif" font-size="14.00"> &#160;Exports</text>
<g id="clust1" class="cluster">
<title>cluster_SharedModule</title>
<polygon fill="none" stroke="black" stroke-dasharray="1,5" points="90,-70 90,-268 406,-268 406,-70 90,-70"/>
</g>
<g id="clust6" class="cluster">
<title>cluster_SharedModule_exports</title>
<polygon fill="none" stroke="black" points="98,-208 98,-260 398,-260 398,-208 98,-208"/>
</g>
<g id="clust2" class="cluster">
<title>cluster_SharedModule_declarations</title>
<polygon fill="none" stroke="black" points="102,-78 102,-130 394,-130 394,-78 102,-78"/>
</g>
<!-- BtnComponent -->
<g id="node1" class="node">
<title>BtnComponent</title>
<polygon fill="#ffffb3" stroke="black" points="385.56,-122 284.44,-122 284.44,-86 385.56,-86 385.56,-122"/>
<text text-anchor="middle" x="335" y="-99.8" font-family="Times,serif" font-size="14.00">BtnComponent</text>
</g>
<!-- SharedModule -->
<g id="node3" class="node">
<title>SharedModule</title>
<polygon fill="#8dd3c7" stroke="black" points="238.42,-187 235.42,-191 214.42,-191 211.42,-187 139.58,-187 139.58,-151 238.42,-151 238.42,-187"/>
<text text-anchor="middle" x="189" y="-164.8" font-family="Times,serif" font-size="14.00">SharedModule</text>
</g>
<!-- BtnComponent&#45;&gt;SharedModule -->
<g id="edge1" class="edge">
<title>BtnComponent&#45;&gt;SharedModule</title>
<path fill="none" stroke="black" d="M352.01,-122.02C352.01,-139.37 352.01,-163 352.01,-163 352.01,-163 248.35,-163 248.35,-163"/>
<polygon fill="black" stroke="black" points="248.35,-159.5 238.35,-163 248.35,-166.5 248.35,-159.5"/>
</g>
<!-- TableauLightComponent -->
<g id="node2" class="node">
<title>TableauLightComponent</title>
<polygon fill="#ffffb3" stroke="black" points="266.25,-122 109.75,-122 109.75,-86 266.25,-86 266.25,-122"/>
<text text-anchor="middle" x="188" y="-99.8" font-family="Times,serif" font-size="14.00">TableauLightComponent</text>
</g>
<!-- TableauLightComponent&#45;&gt;SharedModule -->
<g id="edge2" class="edge">
<title>TableauLightComponent&#45;&gt;SharedModule</title>
<path fill="none" stroke="black" d="M189,-122.11C189,-122.11 189,-140.99 189,-140.99"/>
<polygon fill="black" stroke="black" points="185.5,-140.99 189,-150.99 192.5,-140.99 185.5,-140.99"/>
</g>
<!-- BtnComponent  -->
<g id="node4" class="node">
<title>BtnComponent </title>
<polygon fill="#fb8072" stroke="black" points="389.56,-252 284.44,-252 284.44,-216 389.56,-216 389.56,-252"/>
<text text-anchor="middle" x="337" y="-229.8" font-family="Times,serif" font-size="14.00">BtnComponent </text>
</g>
<!-- SharedModule&#45;&gt;BtnComponent  -->
<g id="edge3" class="edge">
<title>SharedModule&#45;&gt;BtnComponent </title>
<path fill="none" stroke="black" stroke-dasharray="5,2" d="M238.23,-175C274.75,-175 318.24,-175 318.24,-175 318.24,-175 318.24,-205.98 318.24,-205.98"/>
<polygon fill="black" stroke="black" points="314.74,-205.98 318.24,-215.98 321.74,-205.98 314.74,-205.98"/>
</g>
<!-- TableauLightComponent  -->
<g id="node5" class="node">
<title>TableauLightComponent </title>
<polygon fill="#fb8072" stroke="black" points="266.25,-252 105.75,-252 105.75,-216 266.25,-216 266.25,-252"/>
<text text-anchor="middle" x="186" y="-229.8" font-family="Times,serif" font-size="14.00">TableauLightComponent </text>
</g>
<!-- SharedModule&#45;&gt;TableauLightComponent  -->
<g id="edge4" class="edge">
<title>SharedModule&#45;&gt;TableauLightComponent </title>
<path fill="none" stroke="black" stroke-dasharray="5,2" d="M189,-187.11C189,-187.11 189,-205.99 189,-205.99"/>
<polygon fill="black" stroke="black" points="185.5,-205.99 189,-215.99 192.5,-205.99 185.5,-205.99"/>
</g>
</g>
</svg>
