<?xml version="1.0" encoding="UTF-8" standalone="no"?>
<!DOCTYPE svg PUBLIC "-//W3C//DTD SVG 1.1//EN"
 "http://www.w3.org/Graphics/SVG/1.1/DTD/svg11.dtd">
<!-- Generated by graphviz version 2.44.1 (20200629.0846)
 -->
<!-- Title: dependencies Pages: 1 -->
<svg width="530pt" height="284pt"
 viewBox="0.00 0.00 530.00 284.00" xmlns="http://www.w3.org/2000/svg" xmlns:xlink="http://www.w3.org/1999/xlink">
<g id="graph0" class="graph" transform="scale(1 1) rotate(0) translate(4 280)">
<title>dependencies</title>
<polygon fill="white" stroke="transparent" points="-4,4 -4,-280 526,-280 526,4 -4,4"/>
<text text-anchor="start" x="240.01" y="-42.4" font-family="sans-serif" font-weight="bold" font-size="14.00">Legend</text>
<polygon fill="#ffffb3" stroke="transparent" points="27,-10 27,-30 47,-30 47,-10 27,-10"/>
<text text-anchor="start" x="50.63" y="-15.4" font-family="sans-serif" font-size="14.00"> &#160;Declarations</text>
<polygon fill="#8dd3c7" stroke="transparent" points="140,-10 140,-30 160,-30 160,-10 140,-10"/>
<text text-anchor="start" x="163.73" y="-15.4" font-family="sans-serif" font-size="14.00"> &#160;Module</text>
<polygon fill="#80b1d3" stroke="transparent" points="226,-10 226,-30 246,-30 246,-10 226,-10"/>
<text text-anchor="start" x="249.78" y="-15.4" font-family="sans-serif" font-size="14.00"> &#160;Bootstrap</text>
<polygon fill="#fdb462" stroke="transparent" points="323,-10 323,-30 343,-30 343,-10 323,-10"/>
<text text-anchor="start" x="346.67" y="-15.4" font-family="sans-serif" font-size="14.00"> &#160;Providers</text>
<polygon fill="#fb8072" stroke="transparent" points="419,-10 419,-30 439,-30 439,-10 419,-10"/>
<text text-anchor="start" x="442.73" y="-15.4" font-family="sans-serif" font-size="14.00"> &#160;Exports</text>
<g id="clust1" class="cluster">
<title>cluster_AppModule</title>
<polygon fill="none" stroke="black" stroke-dasharray="1,5" points="8,-70 8,-268 514,-268 514,-70 8,-70"/>
</g>
<g id="clust2" class="cluster">
<title>cluster_AppModule_declarations</title>
<polygon fill="none" stroke="black" points="384,-78 384,-130 506,-130 506,-78 384,-78"/>
</g>
<g id="clust6" class="cluster">
<title>cluster_AppModule_bootstrap</title>
<polygon fill="none" stroke="black" points="179,-208 179,-260 303,-260 303,-208 179,-208"/>
</g>
<g id="clust4" class="cluster">
<title>cluster_AppModule_imports</title>
<polygon fill="none" stroke="black" points="16,-78 16,-130 376,-130 376,-78 16,-78"/>
</g>
<!-- AppComponent -->
<g id="node1" class="node">
<title>AppComponent</title>
<polygon fill="#ffffb3" stroke="black" points="497.94,-122 392.06,-122 392.06,-86 497.94,-86 497.94,-122"/>
<text text-anchor="middle" x="445" y="-99.8" font-family="Times,serif" font-size="14.00">AppComponent</text>
</g>
<!-- AppModule -->
<g id="node2" class="node">
<title>AppModule</title>
<polygon fill="#8dd3c7" stroke="black" points="282.66,-187 279.66,-191 258.66,-191 255.66,-187 199.34,-187 199.34,-151 282.66,-151 282.66,-187"/>
<text text-anchor="middle" x="241" y="-164.8" font-family="Times,serif" font-size="14.00">AppModule</text>
</g>
<!-- AppComponent&#45;&gt;AppModule -->
<g id="edge1" class="edge">
<title>AppComponent&#45;&gt;AppModule</title>
<path fill="none" stroke="black" d="M445,-122.11C445,-141.34 445,-169 445,-169 445,-169 292.77,-169 292.77,-169"/>
<polygon fill="black" stroke="black" points="292.77,-165.5 282.77,-169 292.77,-172.5 292.77,-165.5"/>
</g>
<!-- AppComponent  -->
<g id="node6" class="node">
<title>AppComponent </title>
<polygon fill="#80b1d3" stroke="black" points="295.44,-252 186.56,-252 186.56,-216 295.44,-216 295.44,-252"/>
<text text-anchor="middle" x="241" y="-229.8" font-family="Times,serif" font-size="14.00">AppComponent </text>
</g>
<!-- AppModule&#45;&gt;AppComponent  -->
<g id="edge5" class="edge">
<title>AppModule&#45;&gt;AppComponent </title>
<path fill="none" stroke="black" stroke-dasharray="1,5" d="M241,-187.11C241,-187.11 241,-205.99 241,-205.99"/>
<polygon fill="black" stroke="black" points="237.5,-205.99 241,-215.99 244.5,-205.99 237.5,-205.99"/>
</g>
<!-- AppRoutingModule -->
<g id="node3" class="node">
<title>AppRoutingModule</title>
<polygon fill="#8dd3c7" stroke="black" points="368.27,-122 365.27,-126 344.27,-126 341.27,-122 239.73,-122 239.73,-86 368.27,-86 368.27,-122"/>
<text text-anchor="middle" x="304" y="-99.8" font-family="Times,serif" font-size="14.00">AppRoutingModule</text>
</g>
<!-- AppRoutingModule&#45;&gt;AppModule -->
<g id="edge2" class="edge">
<title>AppRoutingModule&#45;&gt;AppModule</title>
<path fill="none" stroke="black" d="M261.22,-122.11C261.22,-122.11 261.22,-140.99 261.22,-140.99"/>
<polygon fill="black" stroke="black" points="257.72,-140.99 261.22,-150.99 264.72,-140.99 257.72,-140.99"/>
</g>
<!-- CoreModule -->
<g id="node4" class="node">
<title>CoreModule</title>
<polygon fill="#8dd3c7" stroke="black" points="221.26,-122 218.26,-126 197.26,-126 194.26,-122 134.74,-122 134.74,-86 221.26,-86 221.26,-122"/>
<text text-anchor="middle" x="178" y="-99.8" font-family="Times,serif" font-size="14.00">CoreModule</text>
</g>
<!-- CoreModule&#45;&gt;AppModule -->
<g id="edge3" class="edge">
<title>CoreModule&#45;&gt;AppModule</title>
<path fill="none" stroke="black" d="M210.28,-122.11C210.28,-122.11 210.28,-140.99 210.28,-140.99"/>
<polygon fill="black" stroke="black" points="206.78,-140.99 210.28,-150.99 213.78,-140.99 206.78,-140.99"/>
</g>
<!-- LoginModule -->
<g id="node5" class="node">
<title>LoginModule</title>
<polygon fill="#8dd3c7" stroke="black" points="116.49,-122 113.49,-126 92.49,-126 89.49,-122 23.51,-122 23.51,-86 116.49,-86 116.49,-122"/>
<text text-anchor="middle" x="70" y="-99.8" font-family="Times,serif" font-size="14.00">LoginModule</text>
</g>
<!-- LoginModule&#45;&gt;AppModule -->
<g id="edge4" class="edge">
<title>LoginModule&#45;&gt;AppModule</title>
<path fill="none" stroke="black" d="M70,-122.11C70,-141.34 70,-169 70,-169 70,-169 189.17,-169 189.17,-169"/>
<polygon fill="black" stroke="black" points="189.17,-172.5 199.17,-169 189.17,-165.5 189.17,-172.5"/>
</g>
</g>
</svg>
