<?xml version="1.0" encoding="UTF-8" standalone="no"?>
<!DOCTYPE svg PUBLIC "-//W3C//DTD SVG 1.1//EN"
 "http://www.w3.org/Graphics/SVG/1.1/DTD/svg11.dtd">
<!-- Generated by graphviz version 2.44.1 (20200629.0846)
 -->
<!-- Title: dependencies Pages: 1 -->
<svg width="1184pt" height="284pt"
 viewBox="0.00 0.00 1184.00 284.00" xmlns="http://www.w3.org/2000/svg" xmlns:xlink="http://www.w3.org/1999/xlink">
<g id="graph0" class="graph" transform="scale(1 1) rotate(0) translate(4 280)">
<title>dependencies</title>
<polygon fill="white" stroke="transparent" points="-4,4 -4,-280 1180,-280 1180,4 -4,4"/>
<text text-anchor="start" x="567.01" y="-42.4" font-family="sans-serif" font-weight="bold" font-size="14.00">Legend</text>
<polygon fill="#ffffb3" stroke="transparent" points="354,-10 354,-30 374,-30 374,-10 354,-10"/>
<text text-anchor="start" x="377.63" y="-15.4" font-family="sans-serif" font-size="14.00"> &#160;Declarations</text>
<polygon fill="#8dd3c7" stroke="transparent" points="467,-10 467,-30 487,-30 487,-10 467,-10"/>
<text text-anchor="start" x="490.73" y="-15.4" font-family="sans-serif" font-size="14.00"> &#160;Module</text>
<polygon fill="#80b1d3" stroke="transparent" points="553,-10 553,-30 573,-30 573,-10 553,-10"/>
<text text-anchor="start" x="576.78" y="-15.4" font-family="sans-serif" font-size="14.00"> &#160;Bootstrap</text>
<polygon fill="#fdb462" stroke="transparent" points="650,-10 650,-30 670,-30 670,-10 650,-10"/>
<text text-anchor="start" x="673.67" y="-15.4" font-family="sans-serif" font-size="14.00"> &#160;Providers</text>
<polygon fill="#fb8072" stroke="transparent" points="746,-10 746,-30 766,-30 766,-10 746,-10"/>
<text text-anchor="start" x="769.73" y="-15.4" font-family="sans-serif" font-size="14.00"> &#160;Exports</text>
<g id="clust1" class="cluster">
<title>cluster_TextsModule</title>
<polygon fill="none" stroke="black" stroke-dasharray="1,5" points="8,-70 8,-268 1168,-268 1168,-70 8,-70"/>
</g>
<g id="clust2" class="cluster">
<title>cluster_TextsModule_declarations</title>
<polygon fill="none" stroke="black" points="29,-78 29,-130 1152,-130 1152,-78 29,-78"/>
</g>
<g id="clust10" class="cluster">
<title>cluster_TextsModule_exports</title>
<polygon fill="none" stroke="black" points="16,-208 16,-260 1160,-260 1160,-208 16,-208"/>
</g>
<!-- TextBandeauComponent -->
<g id="node1" class="node">
<title>TextBandeauComponent</title>
<polygon fill="#ffffb3" stroke="black" points="1143.97,-122 988.03,-122 988.03,-86 1143.97,-86 1143.97,-122"/>
<text text-anchor="middle" x="1066" y="-99.8" font-family="Times,serif" font-size="14.00">TextBandeauComponent</text>
</g>
<!-- TextsModule -->
<g id="node7" class="node">
<title>TextsModule</title>
<polygon fill="#8dd3c7" stroke="black" points="545.15,-187 542.15,-191 521.15,-191 518.15,-187 454.85,-187 454.85,-151 545.15,-151 545.15,-187"/>
<text text-anchor="middle" x="500" y="-164.8" font-family="Times,serif" font-size="14.00">TextsModule</text>
</g>
<!-- TextBandeauComponent&#45;&gt;TextsModule -->
<g id="edge1" class="edge">
<title>TextBandeauComponent&#45;&gt;TextsModule</title>
<path fill="none" stroke="black" d="M1093.41,-122.22C1093.41,-140.83 1093.41,-167 1093.41,-167 1093.41,-167 555.58,-167 555.58,-167"/>
<polygon fill="black" stroke="black" points="555.58,-163.5 545.58,-167 555.58,-170.5 555.58,-163.5"/>
</g>
<!-- TextDialogErrorComponent -->
<g id="node2" class="node">
<title>TextDialogErrorComponent</title>
<polygon fill="#ffffb3" stroke="black" points="970.13,-122 795.87,-122 795.87,-86 970.13,-86 970.13,-122"/>
<text text-anchor="middle" x="883" y="-99.8" font-family="Times,serif" font-size="14.00">TextDialogErrorComponent</text>
</g>
<!-- TextDialogErrorComponent&#45;&gt;TextsModule -->
<g id="edge2" class="edge">
<title>TextDialogErrorComponent&#45;&gt;TextsModule</title>
<path fill="none" stroke="black" d="M912.19,-122.03C912.19,-139.06 912.19,-162 912.19,-162 912.19,-162 555.29,-162 555.29,-162"/>
<polygon fill="black" stroke="black" points="555.29,-158.5 545.29,-162 555.29,-165.5 555.29,-158.5"/>
</g>
<!-- TextDialogInfoComponent -->
<g id="node3" class="node">
<title>TextDialogInfoComponent</title>
<polygon fill="#ffffb3" stroke="black" points="777.41,-122 608.59,-122 608.59,-86 777.41,-86 777.41,-122"/>
<text text-anchor="middle" x="693" y="-99.8" font-family="Times,serif" font-size="14.00">TextDialogInfoComponent</text>
</g>
<!-- TextDialogInfoComponent&#45;&gt;TextsModule -->
<g id="edge3" class="edge">
<title>TextDialogInfoComponent&#45;&gt;TextsModule</title>
<path fill="none" stroke="black" d="M664.93,-122.24C664.93,-137.57 664.93,-157 664.93,-157 664.93,-157 555.5,-157 555.5,-157"/>
<polygon fill="black" stroke="black" points="555.5,-153.5 545.5,-157 555.5,-160.5 555.5,-153.5"/>
</g>
<!-- TextDialogSuccessComponent -->
<g id="node4" class="node">
<title>TextDialogSuccessComponent</title>
<polygon fill="#ffffb3" stroke="black" points="590.91,-122 401.09,-122 401.09,-86 590.91,-86 590.91,-122"/>
<text text-anchor="middle" x="496" y="-99.8" font-family="Times,serif" font-size="14.00">TextDialogSuccessComponent</text>
</g>
<!-- TextDialogSuccessComponent&#45;&gt;TextsModule -->
<g id="edge4" class="edge">
<title>TextDialogSuccessComponent&#45;&gt;TextsModule</title>
<path fill="none" stroke="black" d="M500,-122.11C500,-122.11 500,-140.99 500,-140.99"/>
<polygon fill="black" stroke="black" points="496.5,-140.99 500,-150.99 503.5,-140.99 496.5,-140.99"/>
</g>
<!-- TextDialogWarningComponent -->
<g id="node5" class="node">
<title>TextDialogWarningComponent</title>
<polygon fill="#ffffb3" stroke="black" points="383.07,-122 188.93,-122 188.93,-86 383.07,-86 383.07,-122"/>
<text text-anchor="middle" x="286" y="-99.8" font-family="Times,serif" font-size="14.00">TextDialogWarningComponent</text>
</g>
<!-- TextDialogWarningComponent&#45;&gt;TextsModule -->
<g id="edge5" class="edge">
<title>TextDialogWarningComponent&#45;&gt;TextsModule</title>
<path fill="none" stroke="black" d="M314.85,-122.01C314.85,-138.05 314.85,-159 314.85,-159 314.85,-159 444.71,-159 444.71,-159"/>
<polygon fill="black" stroke="black" points="444.71,-162.5 454.71,-159 444.71,-155.5 444.71,-162.5"/>
</g>
<!-- TextPageComponent -->
<g id="node6" class="node">
<title>TextPageComponent</title>
<polygon fill="#ffffb3" stroke="black" points="171.2,-122 36.8,-122 36.8,-86 171.2,-86 171.2,-122"/>
<text text-anchor="middle" x="104" y="-99.8" font-family="Times,serif" font-size="14.00">TextPageComponent</text>
</g>
<!-- TextPageComponent&#45;&gt;TextsModule -->
<g id="edge6" class="edge">
<title>TextPageComponent&#45;&gt;TextsModule</title>
<path fill="none" stroke="black" d="M166.48,-122.27C166.48,-140.56 166.48,-166 166.48,-166 166.48,-166 444.67,-166 444.67,-166"/>
<polygon fill="black" stroke="black" points="444.67,-169.5 454.67,-166 444.67,-162.5 444.67,-169.5"/>
</g>
<!-- TextBandeauComponent  -->
<g id="node8" class="node">
<title>TextBandeauComponent </title>
<polygon fill="#fb8072" stroke="black" points="1151.97,-252 992.03,-252 992.03,-216 1151.97,-216 1151.97,-252"/>
<text text-anchor="middle" x="1072" y="-229.8" font-family="Times,serif" font-size="14.00">TextBandeauComponent </text>
</g>
<!-- TextsModule&#45;&gt;TextBandeauComponent  -->
<g id="edge7" class="edge">
<title>TextsModule&#45;&gt;TextBandeauComponent </title>
<path fill="none" stroke="black" stroke-dasharray="5,2" d="M545.35,-172C675.81,-172 1042.84,-172 1042.84,-172 1042.84,-172 1042.84,-205.73 1042.84,-205.73"/>
<polygon fill="black" stroke="black" points="1039.34,-205.73 1042.84,-215.73 1046.34,-205.73 1039.34,-205.73"/>
</g>
<!-- TextDialogErrorComponent  -->
<g id="node9" class="node">
<title>TextDialogErrorComponent </title>
<polygon fill="#fb8072" stroke="black" points="974.13,-252 795.87,-252 795.87,-216 974.13,-216 974.13,-252"/>
<text text-anchor="middle" x="885" y="-229.8" font-family="Times,serif" font-size="14.00">TextDialogErrorComponent </text>
</g>
<!-- TextsModule&#45;&gt;TextDialogErrorComponent  -->
<g id="edge8" class="edge">
<title>TextsModule&#45;&gt;TextDialogErrorComponent </title>
<path fill="none" stroke="black" stroke-dasharray="5,2" d="M545.2,-177C640.65,-177 854.06,-177 854.06,-177 854.06,-177 854.06,-205.96 854.06,-205.96"/>
<polygon fill="black" stroke="black" points="850.56,-205.96 854.06,-215.96 857.56,-205.96 850.56,-205.96"/>
</g>
<!-- TextDialogInfoComponent  -->
<g id="node10" class="node">
<title>TextDialogInfoComponent </title>
<polygon fill="#fb8072" stroke="black" points="777.91,-252 606.09,-252 606.09,-216 777.91,-216 777.91,-252"/>
<text text-anchor="middle" x="692" y="-229.8" font-family="Times,serif" font-size="14.00">TextDialogInfoComponent </text>
</g>
<!-- TextsModule&#45;&gt;TextDialogInfoComponent  -->
<g id="edge9" class="edge">
<title>TextsModule&#45;&gt;TextDialogInfoComponent </title>
<path fill="none" stroke="black" stroke-dasharray="5,2" d="M545.27,-182C609.95,-182 721.07,-182 721.07,-182 721.07,-182 721.07,-205.81 721.07,-205.81"/>
<polygon fill="black" stroke="black" points="717.57,-205.81 721.07,-215.81 724.57,-205.81 717.57,-205.81"/>
</g>
<!-- TextDialogSuccessComponent  -->
<g id="node11" class="node">
<title>TextDialogSuccessComponent </title>
<polygon fill="#fb8072" stroke="black" points="588.41,-252 395.59,-252 395.59,-216 588.41,-216 588.41,-252"/>
<text text-anchor="middle" x="492" y="-229.8" font-family="Times,serif" font-size="14.00">TextDialogSuccessComponent </text>
</g>
<!-- TextsModule&#45;&gt;TextDialogSuccessComponent  -->
<g id="edge10" class="edge">
<title>TextsModule&#45;&gt;TextDialogSuccessComponent </title>
<path fill="none" stroke="black" stroke-dasharray="5,2" d="M500,-187.11C500,-187.11 500,-205.99 500,-205.99"/>
<polygon fill="black" stroke="black" points="496.5,-205.99 500,-215.99 503.5,-205.99 496.5,-205.99"/>
</g>
<!-- TextDialogWarningComponent  -->
<g id="node12" class="node">
<title>TextDialogWarningComponent </title>
<polygon fill="#fb8072" stroke="black" points="377.57,-252 180.43,-252 180.43,-216 377.57,-216 377.57,-252"/>
<text text-anchor="middle" x="279" y="-229.8" font-family="Times,serif" font-size="14.00">TextDialogWarningComponent </text>
</g>
<!-- TextsModule&#45;&gt;TextDialogWarningComponent  -->
<g id="edge11" class="edge">
<title>TextsModule&#45;&gt;TextDialogWarningComponent </title>
<path fill="none" stroke="black" stroke-dasharray="5,2" d="M454.78,-180C383.22,-180 251.9,-180 251.9,-180 251.9,-180 251.9,-205.72 251.9,-205.72"/>
<polygon fill="black" stroke="black" points="248.4,-205.72 251.9,-215.72 255.4,-205.72 248.4,-205.72"/>
</g>
<!-- TextPageComponent  -->
<g id="node13" class="node">
<title>TextPageComponent </title>
<polygon fill="#fb8072" stroke="black" points="161.7,-252 24.3,-252 24.3,-216 161.7,-216 161.7,-252"/>
<text text-anchor="middle" x="93" y="-229.8" font-family="Times,serif" font-size="14.00">TextPageComponent </text>
</g>
<!-- TextsModule&#45;&gt;TextPageComponent  -->
<g id="edge12" class="edge">
<title>TextsModule&#45;&gt;TextPageComponent </title>
<path fill="none" stroke="black" stroke-dasharray="5,2" d="M454.82,-173C350.05,-173 99.38,-173 99.38,-173 99.38,-173 99.38,-205.7 99.38,-205.7"/>
<polygon fill="black" stroke="black" points="95.88,-205.7 99.38,-215.7 102.88,-205.7 95.88,-205.7"/>
</g>
</g>
</svg>
